<svg version="1.2" xmlns="http://www.w3.org/2000/svg" viewBox="0 0 512 512" width="512" height="512"><style>.a{fill:#ff1964}</style><path fill-rule="evenodd" class="a" d="m497.9 339.7c-11.1-4.6-23.5-6.6-36.2-5-13.7-33.9-50.3-54.4-87.5-44-40 11.2-61.8 53.1-51.8 92.1l22.9 89.3c1.9 7.5 5.6 14.2 10.4 19.7-30.6 13-64.3 20.2-99.7 20.2-141.4 0-256-114.6-256-256 0-141.4 114.6-256 256-256 141.4 0 256 114.6 256 256 0 29.3-4.9 57.5-14 83.7zm-202-7.8c0-6.9-3-13.2-7.3-18.3-4.2-5.2-10.1-9.7-16.7-13.4-13.2-7.4-30.5-12.3-47.9-12.3-3.6 0-6.8 2.5-7.7 6-0.9 3.5 0.6 7.2 3.8 9l0.2 0.1c0.2 0.1 0.5 0.3 0.9 0.5 0.8 0.5 2 1.2 3.4 2.1 2.8 1.9 6.5 4.5 10.2 7.6 3.7 3.2 7.1 6.6 9.6 10.1 2.5 3.6 3.5 6.4 3.5 8.6 0 2.2-1 5.1-3.5 8.6-2.4 3.5-5.9 7-9.6 10.1-3.7 3.1-7.4 5.7-10.2 7.6-1.4 0.9-2.6 1.6-3.4 2.1-0.4 0.2-0.7 0.4-0.9 0.5l-0.2 0.1c-2.5 1.4-4.1 4.1-4.1 7 0 2.9 1.6 5.6 4.1 7l0.2 0.1 0.9 0.6c0.8 0.5 2 1.2 3.4 2.1 2.8 1.9 6.5 4.5 10.2 7.6 3.7 3.2 7.1 6.6 9.6 10.1 2.5 3.6 3.5 6.4 3.5 8.6 0 2.2-1 5.1-3.5 8.6-2.4 3.5-5.9 7-9.6 10.1-3.7 3.1-7.4 5.7-10.2 7.6-1.4 0.9-2.6 1.6-3.4 2.1-0.4 0.2-0.7 0.4-0.9 0.5l-0.2 0.1c-3.2 1.8-4.7 5.5-3.8 9 0.9 3.5 4.1 6 7.7 6 17.4 0 34.7-4.9 48-12.3 6.6-3.7 12.4-8.2 16.7-13.4 4.2-5.1 7.3-11.4 7.3-18.3 0-6.9-3-13.2-7.3-18.3-4.2-5.2-10.1-9.7-16.7-13.4-2.7-1.6-5.6-3-8.7-4.3 3-1.3 6-2.8 8.7-4.3 6.6-3.7 12.4-8.2 16.7-13.4 4.2-5.1 7.3-11.4 7.3-18.3zm-87.5-123.9c0-17.7-14.3-32-32-32-17.7 0-32 14.3-32 32 0 17.7 14.3 32 32 32 17.7 0 32-14.3 32-32zm185.2 28.8c7.1-5.3 8.5-15.3 3.2-22.4-30.4-40.5-91.2-40.5-121.6 0-5.3 7.1-3.9 17.1 3.2 22.4 7.1 5.3 17.1 3.9 22.4-3.2 17.6-23.5 52.8-23.5 70.4 0 5.3 7.1 15.3 8.5 22.4 3.2zm40.2 115.4l5.4 21 20.2-5.6c22.3-6.2 45.2 7.5 51.1 30.8 5.9 23.3-7.3 47.2-29.5 53.4l-84.9 23.8c-8.6 2.5-17.6-2.7-19.8-11.4l-22.9-89.3c-5.9-23.3 7.2-47.2 29.5-53.4 22.3-6.2 45.1 7.6 51.1 30.8z"/></svg>