<svg version="1.2" xmlns="http://www.w3.org/2000/svg" viewBox="0 0 512 512" width="512" height="512"><style>.a{fill:#ff1964}</style><path fill-rule="evenodd" class="a" d="m0 256c0-141.4 114.6-256 256-256 141.4 0 256 114.6 256 256 0 141.4-114.6 256-256 256-141.4 0-256-114.6-256-256zm256 176c73.8 0 136-50 154.4-118 3.7-13.7-7.5-26-21.7-26h-265.4c-14.2 0-25.4 12.3-21.7 26 18.4 68 80.6 118 154.4 118zm-29.5-216.4c3.3-1.1 5.5-4.2 5.5-7.6 0-17.9-6.7-35.6-16.6-48.8-9.8-13-23.9-23.2-39.4-23.2-15.5 0-29.6 10.2-39.4 23.2-9.9 13.2-16.6 30.9-16.6 48.8 0 3.5 2.3 6.5 5.5 7.6 3.2 1.1 6.8 0 8.9-2.8l0.2-0.2c0.1-0.2 0.4-0.5 0.7-0.9 0.6-0.8 1.6-2 2.8-3.4 2.5-2.8 6-6.6 10.2-10.3 8.8-7.8 18.8-14 27.7-14 8.9 0 18.9 6.2 27.7 14 4.2 3.7 7.7 7.5 10.2 10.3 1.2 1.4 2.2 2.6 2.8 3.4 0.3 0.4 0.5 0.7 0.7 0.9l0.2 0.2c2 2.8 5.6 3.9 8.9 2.8zm160 0c3.3-1.1 5.5-4.2 5.5-7.6 0-17.9-6.7-35.6-16.6-48.8-9.8-13-23.9-23.2-39.4-23.2-15.5 0-29.6 10.2-39.4 23.2-9.9 13.2-16.6 30.9-16.6 48.8 0 3.5 2.3 6.5 5.5 7.6 3.2 1.1 6.8 0 8.9-2.8l0.2-0.2c0.1-0.2 0.4-0.5 0.7-0.9 0.6-0.8 1.6-2 2.8-3.4 2.5-2.8 6-6.6 10.2-10.3 8.8-7.8 18.8-14 27.7-14 8.9 0 18.9 6.2 27.7 14 4.2 3.7 7.7 7.5 10.2 10.3 1.2 1.4 2.2 2.6 2.8 3.4 0.3 0.4 0.5 0.7 0.7 0.9l0.2 0.2c2 2.8 5.6 3.9 8.9 2.8z"/></svg>