<svg version="1.2" xmlns="http://www.w3.org/2000/svg" viewBox="0 0 640 512" width="640" height="512"><style>.a{fill:#ff1964}</style><path fill-rule="evenodd" class="a" d="m548.6 371.4c-42.2 83.4-128.7 140.6-228.6 140.6-99.9 0-186.4-57.2-228.6-140.6 4.5-2.9 8.7-6.3 12.7-10.3 8.1-8.1 13.2-18.6 16.5-26.6 3.6-8.8 6.5-18.4 8.8-27.5 4.6-18.2 7.7-37 9.3-48.2 3.9-26.5-18.8-49.2-45.2-45.4-6.8 0.9-16.2 2.4-26.6 4.4 18.4-123.3 124.7-217.8 253.1-217.8 128.4 0 234.7 94.5 253.2 217.7-10.3-2-19.8-3.5-26.6-4.4-26.5-3.9-49.2 18.8-45.2 45.4 1.6 11.3 4.6 30 9.3 48.2 2.3 9.1 5.2 18.8 8.8 27.5 3.3 8.1 8.4 18.5 16.5 26.6 3.9 3.9 8.2 7.4 12.7 10.3zm-441.6-117.3c-3.1 21.5-11.4 70.2-25.5 84.4-0.9 1-1.9 1.8-2.9 2.7-18.6 15.5-46.6 14.3-64.3-3.5-18.7-18.7-19.1-48.8-0.7-67.2 8.6-8.6 30.1-15.1 50.5-19.6 13-2.8 25.5-4.8 33.9-6 5.4-0.8 9.9 3.7 9 9zm454.5 87.1c-0.8-0.6-1.5-1.3-2.3-2-0.2-0.2-0.5-0.4-0.7-0.7-14.1-14.1-22.5-62.9-25.5-84.4-0.8-5.4 3.7-9.9 9-9 1 0.1 2.2 0.3 3.3 0.5 8.2 1.2 19.2 3 30.6 5.5 20.4 4.4 41.9 10.9 50.5 19.6 18.4 18.4 18 48.5-0.7 67.2-17.7 17.7-45.7 19-64.2 3.4zm-90.1-9.7c5-11.8-7-22.5-19.3-18.7-39.7 12.2-84.4 19-131.8 19-47.4 0-92.1-6.8-131.8-19-12.3-3.8-24.3 6.9-19.3 18.7 25 59.1 83.2 100.5 151.1 100.5 67.9 0 126.2-41.4 151.1-100.5zm-189.8-102.7c2.1 2.8 5.7 3.9 8.9 2.8 3.2-1.1 5.5-4.1 5.5-7.6 0-17.9-6.7-35.6-16.6-48.8-9.8-13-23.9-23.2-39.4-23.2-15.5 0-29.6 10.2-39.4 23.2-9.9 13.2-16.6 30.9-16.6 48.8 0 3.4 2.2 6.5 5.5 7.6 3.3 1.1 6.9 0 8.9-2.8l0.2-0.2c0.2-0.2 0.4-0.5 0.7-0.9 0.6-0.8 1.6-2 2.8-3.4 2.5-2.8 6-6.6 10.2-10.3 8.8-7.8 18.8-14 27.7-14 8.9 0 18.9 6.2 27.7 14 4.2 3.7 7.7 7.5 10.2 10.3 1.2 1.4 2.2 2.6 2.8 3.4 0.3 0.4 0.6 0.7 0.7 0.9zm160 0c2.1 2.8 5.7 3.9 8.9 2.8 3.2-1.1 5.5-4.1 5.5-7.6 0-17.9-6.7-35.6-16.6-48.8-9.8-13-23.9-23.2-39.4-23.2-15.5 0-29.6 10.2-39.4 23.2-9.9 13.2-16.6 30.9-16.6 48.8 0 3.4 2.2 6.5 5.5 7.6 3.3 1.1 6.9 0 8.9-2.8l0.2-0.2c0.2-0.2 0.4-0.5 0.7-0.9 0.6-0.8 1.6-2 2.8-3.4 2.5-2.8 6-6.6 10.2-10.3 8.8-7.8 18.8-14 27.7-14 8.9 0 18.9 6.2 27.7 14 4.2 3.7 7.7 7.5 10.2 10.3 1.2 1.4 2.2 2.6 2.8 3.4 0.3 0.4 0.6 0.7 0.7 0.9z"/></svg>