<svg version="1.2" xmlns="http://www.w3.org/2000/svg" viewBox="0 0 512 512" width="512" height="512"><style>.a{fill:#ff1964}</style><path fill-rule="evenodd" class="a" d="m0 256c0-141.4 114.6-256 256-256 141.4 0 256 114.6 256 256 0 141.4-114.6 256-256 256-141.4 0-256-114.6-256-256zm256 80c-45.9 0-89.3-6.6-127.8-18.2-12.3-3.7-24.3 6.9-19.2 18.7 24.5 56.9 81.1 96.7 147 96.7 65.9 0 122.5-39.8 147-96.7 5.1-11.7-6.9-22.4-19.2-18.7-38.5 11.6-81.9 18.2-127.8 18.2zm-56.8-207c-17.7-4.8-36 5.8-40.8 23.6l-4.3 16.1-16.1-4.3c-17.7-4.8-36 5.9-40.8 23.6-4.8 17.7 5.8 36 23.6 40.8l65.1 17.4c8.5 2.3 17.3-2.8 19.6-11.3l17.4-65c4.8-17.7-5.8-36-23.6-40.8zm154.4 23.8c-4.8-17.8-23.1-28.3-40.9-23.6-17.8 4.7-28.4 23-23.6 40.8l17.4 65c2.3 8.5 11.1 13.6 19.6 11.3l65.1-17.4c17.8-4.7 28.3-23 23.6-40.8-4.7-17.8-23-28.4-40.8-23.6l-16.1 4.3-4.3-16.1z"/></svg>