<svg version="1.2" xmlns="http://www.w3.org/2000/svg" viewBox="0 0 512 512" width="512" height="512"><style>.a{fill:#fff}</style><path fill-rule="evenodd" class="a" d="m174.5 498.8c-101.4-34.1-174.5-129.9-174.5-242.8 0-141.4 114.6-256 256-256 141.4 0 256 114.6 256 256 0 112.9-73.1 208.7-174.5 242.8 9.2-14.8 14.5-32.2 14.5-50.8v-46.9c24.3-17.5 43.6-41.6 55.4-69.6 5-11.8-7-22.5-19.3-18.7-39.7 12.2-84.5 19-131.8 19-47.3 0-92.1-6.8-131.8-19-12.3-3.8-24.3 6.9-19.3 18.7 11.7 27.8 30.8 51.7 54.8 69.2v47.3c0 18.6 5.3 36 14.5 50.8zm20.7-265.2c5.3 7.1 15.3 8.5 22.4 3.2 7.1-5.3 8.5-15.3 3.2-22.4-30.4-40.5-91.2-40.5-121.6 0-5.3 7.1-3.9 17.1 3.2 22.4 7.1 5.3 17.1 3.9 22.4-3.2 17.6-23.5 52.8-23.5 70.4 0zm140.8 38.4c35.3 0 64-28.7 64-64 0-35.3-28.7-64-64-64-35.3 0-64 28.7-64 64 0 35.3 28.7 64 64 64zm-16 130.6v45.4c0 35.3-28.7 64-64 64-35.3 0-64-28.7-64-64v-45.4c0-14.7 11.9-26.6 26.6-26.6h2c11.3 0 21.1 7.9 23.6 18.9 2.8 12.6 20.8 12.6 23.6 0 2.5-11.1 12.3-18.9 23.6-18.9h2c14.7 0 26.6 11.9 26.6 26.6zm16-170.6c-13.3 0-24-10.7-24-24 0-13.3 10.7-24 24-24 13.3 0 24 10.7 24 24 0 13.3-10.7 24-24 24z"/></svg>