<svg version="1.2" xmlns="http://www.w3.org/2000/svg" viewBox="0 0 384 512" width="384" height="512"><style>.a{fill:#fff}</style><path fill-rule="evenodd" class="a" d="m272 383.9h-160c-9.5-31.8-29.4-59.1-49.2-86.2-5.2-7.1-10.4-14.2-15.4-21.4-19.8-28.4-31.4-63-31.4-100.3 0-97.2 78.8-176 176-176 97.2 0 176 78.8 176 176.1 0 37.3-11.6 71.8-31.4 100.3-5 7.2-10.2 14.3-15.4 21.4-19.7 27.1-39.6 54.3-49.2 86.2zm-160 48.1v-16h160v16c0 44.2-35.8 80-80 80-44.2 0-80-35.8-80-80zm80-336c8.8 0 16-7.2 16-16 0-8.8-7.2-16-16-16-61.9 0-112 50.1-112 112 0 8.8 7.2 16 16 16 8.8 0 16-7.2 16-16 0-44.2 35.8-80 80-80z"/></svg>